<svg xmlns="http://www.w3.org/2000/svg" viewBox="0 0 24 24" fill="currentColor" className="h-6 w-6">
  <path d="M12 2.163c3.204 0 3.584.012 4.85.07 1.366.062 2.633.338 3.608 1.313.975.975 1.251 2.242 1.313 3.608.058 1.266.07 1.646.07 4.85s-.012 3.584-.07 4.85c-.062 1.366-.338 2.633-1.313 3.608-.975.975-2.242 1.251-3.608 1.313-1.266.058-1.646.07-4.85.07s-3.584-.012-4.85-.07c-1.366-.062-2.633-.338-3.608-1.313-.975-.975-1.251-2.242-1.313-3.608-.058-1.266-.07-1.646-.07-4.85s.012-3.584.07-4.85c.062-1.366.338-2.633 1.313-3.608.975-.975 2.242-1.251 3.608-1.313 1.266-.058 1.646-.07 4.85-.07M12 0C8.741 0 8.332.014 7.053.072 5.775.131 4.529.373 3.396 1.007c-1.132.634-2.033 1.534-2.667 2.667C.373 4.529.131 5.775.072 7.053.014 8.332 0 8.741 0 12s.014 3.668.072 4.947c.059 1.278.301 2.524.935 3.657.634 1.132 1.534 2.033 2.667 2.667 1.133.634 2.379.876 3.657.935 1.278.058 1.687.072 4.947.072s3.668-.014 4.947-.072c1.278-.059 2.524-.301 3.657-.935 1.132-.634 2.033-1.534 2.667-2.667.634-1.133.876-2.379.935-3.657.058-1.278.072-1.687.072-4.947s-.014-3.668-.072-4.947c-.059-1.278-.301-2.524-.935-3.657-.634-1.132-1.534-2.033-2.667-2.667-1.133-.634-2.379-.876-3.657-.935C15.668.014 15.259 0 12 0zm0 5.838a6.162 6.162 0 100 12.324 6.162 6.162 0 000-12.324zm0 10.162a3.999 3.999 0 110-7.998 3.999 3.999 0 010 7.998zm7.806-11.062a1.44 1.44 0 11-2.88 0 1.44 1.44 0 012.88 0z"/>
</svg>
