<svg xmlns="http://www.w3.org/2000/svg" viewBox="0 0 24 24" fill="currentColor" className="h-6 w-6">
  <path d="M22.225 0H1.771C.792 0 0 .771 0 1.724v20.551C0 23.229.792 24 1.771 24h20.451C23.204 24 24 23.229 24 22.276V1.724C24 .771 23.204 0 22.225 0zM7.125 20.452H3.56V9h3.565v11.452zM5.342 7.539c-1.137 0-2.062-.928-2.062-2.072 0-1.145.925-2.072 2.062-2.072 1.136 0 2.062.927 2.062 2.072 0 1.144-.926 2.072-2.062 2.072zm15.111 12.913h-3.566v-5.885c0-1.404-.03-3.21-1.957-3.21-1.959 0-2.258 1.532-2.258 3.115v5.979h-3.565V9h3.422v1.563h.05c.477-.9 1.637-1.85 3.367-1.85 3.598 0 4.262 2.367 4.262 5.449v6.29h-.015z"/>
</svg>
