<svg xmlns="http://www.w3.org/2000/svg" viewBox="0 0 24 24" fill="currentColor" className="h-6 w-6">
  <path d="M24 4.557a9.83 9.83 0 01-2.828.775 4.932 4.932 0 002.165-2.723 9.865 9.865 0 01-3.127 1.195 4.918 4.918 0 00-8.384 4.482A13.957 13.957 0 011.671 3.15 4.917 4.917 0 003.197 9.723 4.902 4.902 0 01.96 9.164v.062a4.918 4.918 0 003.946 4.827 4.936 4.936 0 01-2.21.084 4.919 4.919 0 004.6 3.417 9.867 9.867 0 01-6.102 2.104c-.396 0-.787-.023-1.175-.068a13.936 13.936 0 007.548 2.212c9.057 0 14.01-7.506 14.01-14.01 0-.213-.004-.426-.013-.637A10.012 10.012 0 0024 4.557z"/>
</svg>
