<svg xmlns="http://www.w3.org/2000/svg" viewBox="0 0 1440 320" style="background-color: #e0f2fe;">
  <path fill="#4890e2" fill-opacity="1" d="M0,192L30,213.3C60,235,120,277,180,256C240,235,300,149,360,128C420,107,480,149,540,165.3C600,181,660,171,720,144C780,117,840,75,900,96C960,117,1020,203,1080,234.7C1140,267,1200,245,1260,208C1320,171,1380,117,1410,90.7L1440,64L1440,320L1410,320C1380,320,1320,320,1260,320C1200,320,1140,320,1080,320C1020,320,960,320,900,320C840,320,780,320,720,320C660,320,600,320,540,320C480,320,420,320,360,320C300,320,240,320,180,320C120,320,60,320,30,320L0,320Z">
    <animate 
      attributeName="d" 
      dur="10s" 
      repeatCount="indefinite" 
      values="
        M0,192L30,213.3C60,235,120,277,180,256C240,235,300,149,360,128C420,107,480,149,540,165.3C600,181,660,171,720,144C780,117,840,75,900,96C960,117,1020,203,1080,234.7C1140,267,1200,245,1260,208C1320,171,1380,117,1410,90.7L1440,64L1440,320L1410,320C1380,320,1320,320,1260,320C1200,320,1140,320,1080,320C1020,320,960,320,900,320C840,320,780,320,720,320C660,320,600,320,540,320C480,320,420,320,360,320C300,320,240,320,180,320C120,320,60,320,30,320L0,320Z;

        M0,160L30,186.7C60,213,120,267,180,261.3C240,256,300,192,360,165.3C420,139,480,149,540,138.7C600,128,660,96,720,106.7C780,117,840,171,900,186.7C960,203,1020,181,1080,165.3C1140,149,1200,139,1260,154.7C1320,171,1380,213,1410,234.7L1440,256L1440,320L1410,320C1380,320,1320,320,1260,320C1200,320,1140,320,1080,320C1020,320,960,320,900,320C840,320,780,320,720,320C660,320,600,320,540,320C480,320,420,320,360,320C300,320,240,320,180,320C120,320,60,320,30,320L0,320Z;
        
        M0,192L30,213.3C60,235,120,277,180,256C240,235,300,149,360,128C420,107,480,149,540,165.3C600,181,660,171,720,144C780,117,840,75,900,96C960,117,1020,203,1080,234.7C1140,267,1200,245,1260,208C1320,171,1380,117,1410,90.7L1440,64L1440,320L1410,320C1380,320,1320,320,1260,320C1200,320,1140,320,1080,320C1020,320,960,320,900,320C840,320,780,320,720,320C660,320,600,320,540,320C480,320,420,320,360,320C300,320,240,320,180,320C120,320,60,320,30,320L0,320Z;
      "
    />
  </path>
</svg>
